<svg xmlns="http://www.w3.org/2000/svg" viewBox="0 0 96.8 96.8"><defs><style>.a{fill:#727272;}.b{fill:#fff;}</style></defs><title>mod_booking-icon</title><circle class="a" cx="48.4" cy="48.4" r="48.4"/><path class="b" d="M32.67,58.67V37a6.3,6.3,0,0,1,.52-2.17H24s-4.33,0-4.33,4.34V54.33c0,4.34,4.33,4.34,4.33,4.34V80.33H37V63S32.67,63,32.67,58.67Zm0-26a6.36,6.36,0,0,0,3.09-.82l.41-.22a6.48,6.48,0,1,0-3.5,1ZM76,34.83H66.82A6.41,6.41,0,0,1,67.33,37V58.67C67.33,63,63,63,63,63V80.33H76V58.67s4.33,0,4.33-4.34V39.17S80.33,34.83,76,34.83Zm-12.18-3.2c.14.07.29.14.42.22a6.39,6.39,0,0,0,3.09.82,6.52,6.52,0,1,0-3.51-1ZM50,32.67a6.5,6.5,0,1,0-6.5-6.5A6.5,6.5,0,0,0,50,32.67Zm13,6.5s0-4.34-4.33-4.34H41.33S37,34.83,37,39.17V54.33c0,4.34,4.33,4.34,4.33,4.34V80.33H58.67V58.67s4.33,0,4.33-4.34Z" transform="translate(-1.7 -2.1)"/></svg>